#N canvas 475 121 652 436 10;
#X declare -lib mrpeach;
#X obj 92 405 dac~ 1 2 3 4;
#X obj 56 47 osc~ 440;
#X obj 81 75 *~ 0.05;
#X obj 164 205 sin;
#X floatatom 160 42 0 0 0 0 - - -;
#X obj 166 175 * 6.28319;
#X obj 166 149 / 360;
#X floatatom 164 226 5 0 0 0 - - -;
#X obj 237 208 sin;
#X obj 239 178 * 6.28319;
#X obj 239 152 / 360;
#X floatatom 237 229 5 0 0 0 - - -;
#X obj 164 255 + 1;
#X obj 171 282 / 2;
#X floatatom 170 306 5 0 0 0 - - -;
#X obj 91 378 *~;
#X obj 237 256 + 1;
#X obj 244 283 / 2;
#X floatatom 243 307 5 0 0 0 - - -;
#X obj 126 378 *~;
#X obj 240 115 + 90;
#X obj 309 206 sin;
#X obj 311 176 * 6.28319;
#X obj 311 150 / 360;
#X floatatom 309 227 5 0 0 0 - - -;
#X obj 309 254 + 1;
#X obj 316 281 / 2;
#X floatatom 315 305 5 0 0 0 - - -;
#X obj 398 206 sin;
#X obj 400 176 * 6.28319;
#X obj 400 150 / 360;
#X floatatom 398 227 5 0 0 0 - - -;
#X obj 398 254 + 1;
#X obj 405 281 / 2;
#X floatatom 404 305 5 0 0 0 - - -;
#X obj 310 116 + 180;
#X obj 396 111 + 270;
#X obj 166 380 *~;
#X obj 201 380 *~;
#X obj 293 33 import mrpeach;
#X text 629 159 milliseconds delay;
#X obj 496 46 bng 15 250 50 0 empty empty empty 17 7 0 10 -262144 -1
-1;
#X obj 497 90 udpreceive 12020;
#X msg 551 58 port 12001;
#X obj 480 175 routeOSC /test;
#X floatatom 490 229 5 0 0 0 - - -;
#X obj 507 268 print;
#X obj 488 139 unpackOSC;
#X obj 465 257 * 360;
#X connect 1 0 2 0;
#X connect 2 0 15 1;
#X connect 2 0 19 1;
#X connect 2 0 37 1;
#X connect 2 0 38 1;
#X connect 3 0 7 0;
#X connect 4 0 6 0;
#X connect 4 0 20 0;
#X connect 4 0 35 0;
#X connect 4 0 36 0;
#X connect 5 0 3 0;
#X connect 6 0 5 0;
#X connect 7 0 12 0;
#X connect 8 0 11 0;
#X connect 9 0 8 0;
#X connect 10 0 9 0;
#X connect 11 0 16 0;
#X connect 12 0 13 0;
#X connect 13 0 14 0;
#X connect 14 0 15 0;
#X connect 15 0 0 0;
#X connect 16 0 17 0;
#X connect 17 0 18 0;
#X connect 18 0 19 0;
#X connect 19 0 0 1;
#X connect 20 0 10 0;
#X connect 21 0 24 0;
#X connect 22 0 21 0;
#X connect 23 0 22 0;
#X connect 24 0 25 0;
#X connect 25 0 26 0;
#X connect 26 0 27 0;
#X connect 27 0 37 0;
#X connect 28 0 31 0;
#X connect 29 0 28 0;
#X connect 30 0 29 0;
#X connect 31 0 32 0;
#X connect 32 0 33 0;
#X connect 33 0 34 0;
#X connect 34 0 38 0;
#X connect 35 0 23 0;
#X connect 36 0 30 0;
#X connect 37 0 0 2;
#X connect 38 0 0 3;
#X connect 41 0 42 0;
#X connect 42 0 47 0;
#X connect 43 0 42 0;
#X connect 44 0 45 0;
#X connect 44 0 46 0;
#X connect 45 0 48 0;
#X connect 47 0 44 0;
#X connect 48 0 4 0;
